<?xml version="1.0" encoding="UTF-8" standalone="no"?>
<svg
   style="font-style:normal;font-weight:normal;font-size:12px;font-family:Dialog;color-interpolation:auto;fill:#000000;fill-opacity:1;stroke:#000000;stroke-width:1;stroke-linecap:square;stroke-linejoin:miter;stroke-miterlimit:10;stroke-dasharray:none;stroke-dashoffset:0;stroke-opacity:1;color-rendering:auto;image-rendering:auto;shape-rendering:auto;text-rendering:auto"
   width="373.75906"
   height="284.13025"
   version="1.1"
   id="svg290"
   sodipodi:docname="BSPL-like protocol.svg"
   inkscape:version="1.2.2 (b0a8486541, 2022-12-01)"
   xmlns:inkscape="http://www.inkscape.org/namespaces/inkscape"
   xmlns:sodipodi="http://sodipodi.sourceforge.net/DTD/sodipodi-0.dtd"
   xmlns:xlink="http://www.w3.org/1999/xlink"
   xmlns="http://www.w3.org/2000/svg"
   xmlns:svg="http://www.w3.org/2000/svg">
  <sodipodi:namedview
     id="namedview292"
     pagecolor="#ffffff"
     bordercolor="#666666"
     borderopacity="1.0"
     inkscape:showpageshadow="2"
     inkscape:pageopacity="0.0"
     inkscape:pagecheckerboard="0"
     inkscape:deskcolor="#d1d1d1"
     showgrid="false"
     inkscape:zoom="2.4866828"
     inkscape:cx="214.54284"
     inkscape:cy="138.94012"
     inkscape:window-width="3840"
     inkscape:window-height="2123"
     inkscape:window-x="0"
     inkscape:window-y="0"
     inkscape:window-maximized="1"
     inkscape:current-layer="svg290" />
  <!--Generated by the Batik Graphics2D SVG Generator-->
  <defs
     id="genericDefs">
    <linearGradient
       inkscape:collect="always"
       xlink:href="#linearGradient3"
       id="linearGradient581"
       gradientUnits="userSpaceOnUse"
       x1="164"
       y1="501"
       x2="235"
       y2="532"
       spreadMethod="pad" />
    <linearGradient
       inkscape:collect="always"
       xlink:href="#linearGradient4"
       id="linearGradient587"
       gradientUnits="userSpaceOnUse"
       x1="292"
       y1="419"
       x2="377"
       y2="450"
       spreadMethod="pad" />
    <linearGradient
       inkscape:collect="always"
       xlink:href="#linearGradient6"
       id="linearGradient593"
       gradientUnits="userSpaceOnUse"
       x1="298"
       y1="501"
       x2="371"
       y2="532"
       spreadMethod="pad" />
    <linearGradient
       inkscape:collect="always"
       xlink:href="#linearGradient12"
       id="linearGradient599"
       gradientUnits="userSpaceOnUse"
       x1="311"
       y1="593"
       x2="358"
       y2="624"
       spreadMethod="pad" />
    <defs
       id="defs1">
      <linearGradient
         x1="138"
         gradientUnits="userSpaceOnUse"
         x2="267"
         y1="377"
         y2="395"
         id="linearGradient1"
         spreadMethod="pad">
        <stop
           style="stop-opacity:1; stop-color:white;"
           offset="0%"
           id="stop3" />
        <stop
           style="stop-opacity:1; stop-color:white;"
           offset="100%"
           id="stop5" />
      </linearGradient>
      <linearGradient
         x1="138"
         gradientUnits="userSpaceOnUse"
         x2="509"
         y1="394"
         y2="668"
         id="linearGradient2"
         spreadMethod="pad">
        <stop
           style="stop-opacity:1; stop-color:white;"
           offset="0%"
           id="stop8" />
        <stop
           style="stop-opacity:1; stop-color:white;"
           offset="100%"
           id="stop10" />
      </linearGradient>
      <linearGradient
         x1="164"
         gradientUnits="userSpaceOnUse"
         x2="235"
         y1="501"
         y2="532"
         id="linearGradient3"
         spreadMethod="pad">
        <stop
           style="stop-opacity:1; stop-color:white;"
           offset="0%"
           id="stop13" />
        <stop
           style="stop-opacity:1; stop-color:white;"
           offset="100%"
           id="stop15" />
      </linearGradient>
      <linearGradient
         x1="292"
         gradientUnits="userSpaceOnUse"
         x2="377"
         y1="419"
         y2="450"
         id="linearGradient4"
         spreadMethod="pad">
        <stop
           style="stop-opacity:1; stop-color:white;"
           offset="0%"
           id="stop18" />
        <stop
           style="stop-opacity:1; stop-color:white;"
           offset="100%"
           id="stop20" />
      </linearGradient>
      <linearGradient
         x1="195"
         gradientUnits="userSpaceOnUse"
         x2="204"
         y1="488"
         y2="502"
         id="linearGradient5"
         spreadMethod="pad">
        <stop
           style="stop-opacity:1; stop-color:rgb(231,231,231);"
           offset="0%"
           id="stop23" />
        <stop
           style="stop-opacity:1; stop-color:black;"
           offset="100%"
           id="stop25" />
      </linearGradient>
      <linearGradient
         x1="298"
         gradientUnits="userSpaceOnUse"
         x2="371"
         y1="501"
         y2="532"
         id="linearGradient6"
         spreadMethod="pad">
        <stop
           style="stop-opacity:1; stop-color:white;"
           offset="0%"
           id="stop28" />
        <stop
           style="stop-opacity:1; stop-color:white;"
           offset="100%"
           id="stop30" />
      </linearGradient>
      <linearGradient
         x1="234"
         gradientUnits="userSpaceOnUse"
         x2="249"
         y1="512"
         y2="521"
         id="linearGradient7"
         spreadMethod="pad">
        <stop
           style="stop-opacity:1; stop-color:rgb(231,231,231);"
           offset="0%"
           id="stop33" />
        <stop
           style="stop-opacity:1; stop-color:black;"
           offset="100%"
           id="stop35" />
      </linearGradient>
      <linearGradient
         x1="370"
         gradientUnits="userSpaceOnUse"
         x2="384"
         y1="512"
         y2="521"
         id="linearGradient8"
         spreadMethod="pad">
        <stop
           style="stop-opacity:1; stop-color:white;"
           offset="0%"
           id="stop38" />
        <stop
           style="stop-opacity:1; stop-color:white;"
           offset="100%"
           id="stop40" />
      </linearGradient>
      <linearGradient
         x1="429"
         gradientUnits="userSpaceOnUse"
         x2="439"
         y1="468"
         y2="478"
         id="linearGradient9"
         spreadMethod="pad">
        <stop
           style="stop-opacity:1; stop-color:rgb(231,231,231);"
           offset="0%"
           id="stop43" />
        <stop
           style="stop-opacity:1; stop-color:black;"
           offset="100%"
           id="stop45" />
      </linearGradient>
      <linearGradient
         x1="329"
         gradientUnits="userSpaceOnUse"
         x2="339"
         y1="488"
         y2="502"
         id="linearGradient10"
         spreadMethod="pad">
        <stop
           style="stop-opacity:1; stop-color:white;"
           offset="0%"
           id="stop48" />
        <stop
           style="stop-opacity:1; stop-color:white;"
           offset="100%"
           id="stop50" />
      </linearGradient>
      <linearGradient
         x1="349"
         gradientUnits="userSpaceOnUse"
         x2="359"
         y1="456"
         y2="466"
         id="linearGradient11"
         spreadMethod="pad">
        <stop
           style="stop-opacity:1; stop-color:rgb(231,231,231);"
           offset="0%"
           id="stop53" />
        <stop
           style="stop-opacity:1; stop-color:black;"
           offset="100%"
           id="stop55" />
      </linearGradient>
      <linearGradient
         x1="311"
         gradientUnits="userSpaceOnUse"
         x2="358"
         y1="593"
         y2="624"
         id="linearGradient12"
         spreadMethod="pad">
        <stop
           style="stop-opacity:1; stop-color:white;"
           offset="0%"
           id="stop58" />
        <stop
           style="stop-opacity:1; stop-color:white;"
           offset="100%"
           id="stop60" />
      </linearGradient>
      <linearGradient
         x1="195"
         gradientUnits="userSpaceOnUse"
         x2="204"
         y1="532"
         y2="546"
         id="linearGradient13"
         spreadMethod="pad">
        <stop
           style="stop-opacity:1; stop-color:rgb(231,231,231);"
           offset="0%"
           id="stop63" />
        <stop
           style="stop-opacity:1; stop-color:black;"
           offset="100%"
           id="stop65" />
      </linearGradient>
      <clipPath
         clipPathUnits="userSpaceOnUse"
         id="clipPath1">
        <path
           d="M 0,0 H 520 V 413 H 0 Z"
           id="path68" />
      </clipPath>
      <clipPath
         clipPathUnits="userSpaceOnUse"
         id="clipPath2">
        <path
           d="m 128.5056,367.7986 h 390.0001 v 309.75 H 128.5056 Z"
           id="path71" />
      </clipPath>
      <clipPath
         clipPathUnits="userSpaceOnUse"
         id="clipPath3">
        <path
           d="M -20,-24 H 370 V 285.75 H -20 Z"
           id="path74" />
      </clipPath>
      <clipPath
         clipPathUnits="userSpaceOnUse"
         id="clipPath4">
        <path
           d="m -45.576,-151.9655 h 390 v 309.75 h -390 z"
           id="path77" />
      </clipPath>
      <clipPath
         clipPathUnits="userSpaceOnUse"
         id="clipPath5">
        <path
           d="m -173.6958,-70.1322 h 390 v 309.75 h -390 z"
           id="path80" />
      </clipPath>
      <clipPath
         clipPathUnits="userSpaceOnUse"
         id="clipPath6">
        <path
           d="m -135.6958,-90.9601 h 390 v 309.75 h -390 z"
           id="path83" />
      </clipPath>
      <clipPath
         clipPathUnits="userSpaceOnUse"
         id="clipPath7">
        <path
           d="m -179.5126,-151.9655 h 390 v 309.75 h -390 z"
           id="path86" />
      </clipPath>
      <clipPath
         clipPathUnits="userSpaceOnUse"
         id="clipPath8">
        <path
           d="m -296.1636,-127.7773 h 390 v 309.75 h -390 z"
           id="path89" />
      </clipPath>
      <clipPath
         clipPathUnits="userSpaceOnUse"
         id="clipPath9">
        <path
           d="m -220.2767,-115.7518 h 390 v 309.75 h -390 z"
           id="path92" />
      </clipPath>
      <clipPath
         clipPathUnits="userSpaceOnUse"
         id="clipPath10">
        <path
           d="m -192.5987,-243.2354 h 390 V 66.5147 h -390 z"
           id="path95" />
      </clipPath>
      <clipPath
         clipPathUnits="userSpaceOnUse"
         id="clipPath11">
        <path
           d="m -154.5987,-264.0633 h 390 v 309.75 h -390 z"
           id="path98" />
      </clipPath>
      <clipPath
         clipPathUnits="userSpaceOnUse"
         id="clipPath12">
        <path
           d="m -234.0784,-214.1327 h 390 v 309.75 h -390 z"
           id="path101" />
      </clipPath>
      <clipPath
         clipPathUnits="userSpaceOnUse"
         id="clipPath13">
        <path
           d="m -115.3246,-214.0335 h 390 v 309.75 h -390 z"
           id="path104" />
      </clipPath>
    </defs>
  </defs>
  <rect
     x="164.0816"
     y="501.7641"
     width="70.304398"
     style="font-weight:bold;font-family:sans-serif;fill:url(#linearGradient581);stroke:none;stroke-width:2;shape-rendering:crispEdges;text-rendering:geometricPrecision"
     height="30"
     clip-path="url(#clipPath2)"
     id="rect126"
     transform="matrix(1.3333,0,0,1.3333,-217.4367,-558.56042)" />
  <rect
     x="164.0816"
     y="501.7641"
     width="70.304398"
     style="font-weight:bold;font-family:sans-serif;fill:none;stroke:#000000;stroke-width:2;shape-rendering:crispEdges;text-rendering:geometricPrecision"
     height="30"
     clip-path="url(#clipPath2)"
     id="rect128"
     transform="matrix(1.3333,0,0,1.3333,-217.4367,-558.56042)" />
  <path
     d="m 3.8125,-8.5625 q 1.6563,0 2.4219,0.7187 Q 7,-7.1406 7,-5.8906 7,-5.1406 6.6875,-4.4844 6.375,-3.8438 5.6406,-3.4375 4.9219,-3.0469 3.6719,-3.0469 H 2.8906 V 0 H 1.0781 V -8.5625 Z M 3.7188,-7.0781 H 2.8906 v 2.5469 h 0.5938 q 0.7812,0 1.2187,-0.2969 0.4531,-0.3125 0.4531,-1 0,-1.25 -1.4374,-1.25 z m 8.411,0.4062 q 0.1406,0 0.3125,0.0157 0.1875,0.0156 0.2969,0.0312 l -0.1406,1.6875 Q 12.5204,-4.9688 12.3486,-4.9844 12.1923,-5 12.0673,-5 q -0.4531,0 -0.875,0.1562 -0.4219,0.1563 -0.6875,0.5313 -0.25,0.3594 -0.25,0.9687 V 0 H 8.4736 v -6.5469 h 1.3593 l 0.2657,1.0938 h 0.0781 q 0.2812,-0.5 0.7812,-0.8594 0.5157,-0.3594 1.1719,-0.3594 z m 7.7449,3.3907 q 0,1.625 -0.8593,2.5156 -0.8594,0.8906 -2.3282,0.8906 -0.9218,0 -1.6406,-0.3906 -0.7031,-0.4063 -1.1094,-1.1719 -0.4062,-0.7656 -0.4062,-1.8437 0,-1.6407 0.8437,-2.5157 0.8594,-0.875 2.3438,-0.875 0.9219,0 1.625,0.4063 0.7187,0.3906 1.125,1.1406 0.4062,0.75 0.4062,1.8438 z m -4.5312,0 q 0,0.9687 0.3125,1.4687 0.3281,0.5 1.0469,0.5 0.7031,0 1.0156,-0.5 0.3281,-0.5 0.3281,-1.4687 0,-0.9844 -0.3281,-1.4688 -0.3125,-0.4844 -1.0313,-0.4844 -0.7031,0 -1.0312,0.4844 -0.3125,0.4844 -0.3125,1.4688 z m 8.7718,1.9687 q 0.2969,0 0.5625,-0.0469 0.2812,-0.0625 0.5625,-0.1562 v 1.3281 q -0.2969,0.125 -0.7188,0.2187 -0.4218,0.0938 -0.9218,0.0938 -0.5938,0 -1.0625,-0.1875 -0.4532,-0.2031 -0.7344,-0.6719 -0.2656,-0.4844 -0.2656,-1.3125 v -3.1562 h -0.8438 v -0.7657 l 0.9844,-0.5937 0.5156,-1.375 h 1.1406 v 1.3906 h 1.8282 v 1.3438 H 23.334 v 3.1562 q 0,0.3594 0.2032,0.5469 0.2187,0.1875 0.5781,0.1875 z m 8.3955,-1.9687 q 0,1.625 -0.8594,2.5156 -0.8593,0.8906 -2.3281,0.8906 -0.9219,0 -1.6406,-0.3906 -0.7031,-0.4063 -1.1094,-1.1719 -0.4062,-0.7656 -0.4062,-1.8437 0,-1.6407 0.8437,-2.5157 0.8594,-0.875 2.3438,-0.875 0.9218,0 1.625,0.4063 0.7187,0.3906 1.125,1.1406 0.4062,0.75 0.4062,1.8438 z m -4.5312,0 q 0,0.9687 0.3125,1.4687 0.3281,0.5 1.0468,0.5 0.7032,0 1.0157,-0.5 0.3281,-0.5 0.3281,-1.4687 0,-0.9844 -0.3281,-1.4688 -0.3125,-0.4844 -1.0313,-0.4844 -0.7031,0 -1.0312,0.4844 -0.3125,0.4844 -0.3125,1.4688 z M 36.642,0.125 q -1.4531,0 -2.25,-0.8125 -0.7969,-0.8125 -0.7969,-2.5469 0,-1.2031 0.4063,-1.9531 0.4062,-0.7656 1.125,-1.125 0.7343,-0.3594 1.6718,-0.3594 0.6719,0 1.1719,0.1407 0.5,0.125 0.875,0.2968 l -0.5312,1.3906 Q 37.892,-5.0156 37.517,-5.125 q -0.3594,-0.1094 -0.7188,-0.1094 -1.3906,0 -1.3906,1.9844 0,0.9844 0.3594,1.4531 0.375,0.4688 1.0312,0.4688 0.5625,0 1,-0.1407 0.4375,-0.1562 0.8438,-0.4218 V -0.375 Q 38.2357,-0.1094 37.7826,0 37.3295,0.125 36.642,0.125 Z m 9.4649,-3.4062 q 0,1.625 -0.8594,2.5156 -0.8593,0.8906 -2.3281,0.8906 -0.9219,0 -1.6406,-0.3906 -0.7031,-0.4063 -1.1094,-1.1719 -0.4062,-0.7656 -0.4062,-1.8437 0,-1.6407 0.8437,-2.5157 0.8594,-0.875 2.3438,-0.875 0.9218,0 1.625,0.4063 0.7187,0.3906 1.125,1.1406 0.4062,0.75 0.4062,1.8438 z m -4.5312,0 q 0,0.9687 0.3125,1.4687 0.3281,0.5 1.0468,0.5 0.7032,0 1.0157,-0.5 0.3281,-0.5 0.3281,-1.4687 0,-0.9844 -0.3281,-1.4688 -0.3125,-0.4844 -1.0313,-0.4844 -0.7031,0 -1.0312,0.4844 -0.3125,0.4844 -0.3125,1.4688 z M 49.3631,0 h -1.7813 v -9.125 h 1.7813 z"
     style="font-weight:bold;font-family:sans-serif;stroke:none;stroke-width:2;text-rendering:optimizeLegibility"
     clip-path="url(#clipPath4)"
     id="path132"
     transform="matrix(1.3333,0,0,1.3333,14.666295,134.44105)" />
  <rect
     x="292.20139"
     y="419.93079"
     width="84.1045"
     style="font-weight:bold;font-family:sans-serif;fill:url(#linearGradient587);stroke:none;stroke-width:2;shape-rendering:crispEdges;text-rendering:geometricPrecision"
     height="30"
     clip-path="url(#clipPath2)"
     id="rect136"
     transform="matrix(1.3333,0,0,1.3333,-217.4367,-558.56042)" />
  <rect
     x="292.20139"
     y="419.93079"
     width="84.1045"
     style="font-weight:bold;font-family:sans-serif;fill:none;stroke:#000000;stroke-width:2;shape-rendering:crispEdges;text-rendering:geometricPrecision"
     height="30"
     clip-path="url(#clipPath2)"
     id="rect138"
     transform="matrix(1.3333,0,0,1.3333,-217.4367,-558.56042)" />
  <path
     d="m 3.8125,-8.5625 q 1.6563,0 2.4219,0.7187 Q 7,-7.1406 7,-5.8906 7,-5.1406 6.6875,-4.4844 6.375,-3.8438 5.6406,-3.4375 4.9219,-3.0469 3.6719,-3.0469 H 2.8906 V 0 H 1.0781 V -8.5625 Z M 3.7188,-7.0781 H 2.8906 v 2.5469 h 0.5938 q 0.7812,0 1.2187,-0.2969 0.4531,-0.3125 0.4531,-1 0,-1.25 -1.4374,-1.25 z m 7.4423,0.3906 q 1.3125,0 2.0156,0.5781 0.7031,0.5625 0.7031,1.7344 V 0 h -1.25 l -0.3437,-0.8906 h -0.0469 q -0.4219,0.5312 -0.8906,0.7812 -0.4688,0.2344 -1.2813,0.2344 -0.875,0 -1.4531,-0.5156 Q 8.0361,-0.9062 8.0361,-1.9531 8.0361,-3 8.7704,-3.5 9.5048,-4 10.9736,-4.0469 l 1.1406,-0.0312 V -4.375 q 0,-0.5156 -0.2813,-0.75 -0.2656,-0.2344 -0.75,-0.2344 -0.4687,0 -0.9375,0.1406 -0.4531,0.125 -0.9062,0.3282 L 8.6454,-6.0938 q 0.5313,-0.2812 1.1719,-0.4374 0.6406,-0.1563 1.3438,-0.1563 z m 0.25,3.6719 q -0.8594,0.0312 -1.2032,0.3281 -0.3281,0.2813 -0.3281,0.75 0,0.4063 0.2344,0.5781 0.2344,0.1719 0.625,0.1719 0.5781,0 0.9687,-0.3437 0.4063,-0.3438 0.4063,-0.9688 v -0.5312 z m 7.9668,-3.6563 q 0.1406,0 0.3125,0.0157 0.1875,0.0156 0.2968,0.0312 l -0.1406,1.6875 Q 19.7685,-4.9688 19.5966,-4.9844 19.4404,-5 19.3154,-5 q -0.4532,0 -0.875,0.1562 -0.4219,0.1563 -0.6875,0.5313 -0.25,0.3594 -0.25,0.9687 V 0 h -1.7813 v -6.5469 h 1.3594 l 0.2656,1.0938 h 0.0781 q 0.2813,-0.5 0.7813,-0.8594 0.5156,-0.3594 1.1719,-0.3594 z m 4.4792,-0.0156 q 1.3125,0 2.0157,0.5781 0.7031,0.5625 0.7031,1.7344 V 0 h -1.25 l -0.3438,-0.8906 h -0.0468 q -0.4219,0.5312 -0.8907,0.7812 -0.4687,0.2344 -1.2812,0.2344 -0.875,0 -1.4531,-0.5156 -0.5782,-0.5156 -0.5782,-1.5625 0,-1.0469 0.7344,-1.5469 0.7344,-0.5 2.2031,-0.5469 l 1.1407,-0.0312 V -4.375 q 0,-0.5156 -0.2813,-0.75 -0.2656,-0.2344 -0.75,-0.2344 -0.4687,0 -0.9375,0.1406 -0.4531,0.125 -0.9062,0.3282 l -0.5938,-1.2032 q 0.5313,-0.2812 1.1719,-0.4374 0.6406,-0.1563 1.3437,-0.1563 z m 0.25,3.6719 q -0.8593,0.0312 -1.2031,0.3281 -0.3281,0.2813 -0.3281,0.75 0,0.4063 0.2344,0.5781 0.2343,0.1719 0.625,0.1719 0.5781,0 0.9687,-0.3437 0.4063,-0.3438 0.4063,-0.9688 v -0.5312 z m 11.9981,-3.6563 q 1.125,0 1.6875,0.5781 0.5781,0.5626 0.5781,1.8282 V 0 h -1.7969 v -3.8281 q 0,-1.4219 -0.9843,-1.4219 -0.7032,0 -1.0157,0.5156 -0.2968,0.5 -0.2968,1.4532 V 0 h -1.7813 v -3.8281 q 0,-1.4219 -0.9844,-1.4219 -0.75,0 -1.0312,0.5625 -0.2813,0.5625 -0.2813,1.6094 V 0 h -1.7812 v -6.5469 h 1.3594 l 0.25,0.8281 h 0.0937 q 0.2969,-0.5 0.8125,-0.7187 0.5313,-0.2344 1.0938,-0.2344 0.7187,0 1.2187,0.2344 0.5156,0.2344 0.7813,0.7187 h 0.1562 q 0.2969,-0.5 0.8281,-0.7187 0.5313,-0.2344 1.0938,-0.2344 z m 6.7997,0 q 1.3438,0 2.1406,0.7813 0.7969,0.7656 0.7969,2.1875 v 0.875 h -4.2187 q 0.0156,0.75 0.4375,1.1875 0.4375,0.4218 1.1875,0.4218 0.6406,0 1.1562,-0.125 0.5156,-0.125 1.0625,-0.3906 v 1.3906 Q 44.983,-0.1094 44.4518,0 q -0.5313,0.125 -1.2813,0.125 -0.9843,0 -1.75,-0.3594 -0.75,-0.375 -1.1875,-1.1094 -0.4218,-0.75 -0.4218,-1.8906 0,-1.1406 0.375,-1.9062 0.3906,-0.7656 1.0937,-1.1406 0.7031,-0.3907 1.625,-0.3907 z m 0,1.2657 q -0.5156,0 -0.8594,0.3437 -0.3281,0.3281 -0.3906,1.0469 h 2.5 q 0,-0.6094 -0.3125,-1 -0.2969,-0.3906 -0.9375,-0.3906 z m 7.1546,4.0937 q 0.2968,0 0.5625,-0.0469 0.2812,-0.0625 0.5625,-0.1562 v 1.3281 q -0.2969,0.125 -0.7188,0.2187 -0.4219,0.0938 -0.9219,0.0938 -0.5937,0 -1.0625,-0.1875 -0.4531,-0.2031 -0.7343,-0.6719 -0.2657,-0.4844 -0.2657,-1.3125 v -3.1562 h -0.8437 v -0.7657 l 0.9844,-0.5937 0.5156,-1.375 h 1.1406 v 1.3906 h 1.8281 v 1.3438 h -1.8281 v 3.1562 q 0,0.3594 0.2031,0.5469 0.2188,0.1875 0.5782,0.1875 z m 5.1455,-5.3594 q 1.3438,0 2.1406,0.7813 0.7969,0.7656 0.7969,2.1875 v 0.875 h -4.2187 q 0.0156,0.75 0.4375,1.1875 0.4375,0.4218 1.1875,0.4218 0.6406,0 1.1562,-0.125 0.5156,-0.125 1.0625,-0.3906 v 1.3906 Q 57.2831,-0.1094 56.7519,0 q -0.5313,0.125 -1.2813,0.125 -0.9843,0 -1.75,-0.3594 -0.75,-0.375 -1.1875,-1.1094 -0.4218,-0.75 -0.4218,-1.8906 0,-1.1406 0.375,-1.9062 0.3906,-0.7656 1.0937,-1.1406 0.7031,-0.3907 1.625,-0.3907 z m 0,1.2657 q -0.5156,0 -0.8594,0.3437 -0.3281,0.3281 -0.3906,1.0469 h 2.5 q 0,-0.6094 -0.3125,-1 -0.2969,-0.3906 -0.9375,-0.3906 z m 8.0452,-1.2657 q 0.1406,0 0.3125,0.0157 0.1875,0.0156 0.2969,0.0312 l -0.1407,1.6875 Q 63.6408,-4.9688 63.4689,-4.9844 63.3127,-5 63.1877,-5 q -0.4531,0 -0.875,0.1562 -0.4219,0.1563 -0.6875,0.5313 -0.25,0.3594 -0.25,0.9687 V 0 h -1.7813 v -6.5469 h 1.3594 l 0.2656,1.0938 h 0.0782 q 0.2812,-0.5 0.7812,-0.8594 0.5156,-0.3594 1.1719,-0.3594 z"
     style="font-weight:bold;font-family:sans-serif;stroke:none;stroke-width:2;text-rendering:optimizeLegibility"
     clip-path="url(#clipPath5)"
     id="path142"
     transform="matrix(1.3333,0,0,1.3333,185.48843,25.332717)" />
  <line
     x1="199.2338"
     x2="199.2338"
     y1="501.7641"
     style="font-weight:bold;font-family:sans-serif;fill:none;text-rendering:optimizeLegibility"
     y2="434.93079"
     clip-path="url(#clipPath2)"
     id="line146"
     transform="matrix(1.3333,0,0,1.3333,-217.4367,-558.56042)" />
  <line
     x1="199.2338"
     x2="292.20139"
     y1="434.93079"
     style="font-weight:bold;font-family:sans-serif;fill:none;text-rendering:optimizeLegibility"
     y2="434.93079"
     clip-path="url(#clipPath2)"
     id="line148"
     transform="matrix(1.3333,0,0,1.3333,-217.4367,-558.56042)" />
  <line
     x1="292.20139"
     x2="281.80911"
     y1="434.93079"
     style="font-weight:bold;font-family:sans-serif;fill:none;text-rendering:optimizeLegibility"
     y2="440.93079"
     clip-path="url(#clipPath2)"
     id="line150"
     transform="matrix(1.3333,0,0,1.3333,-217.4367,-558.56042)" />
  <line
     x1="292.20139"
     x2="281.80911"
     y1="434.93079"
     style="font-weight:bold;font-family:sans-serif;fill:none;text-rendering:optimizeLegibility"
     y2="428.93079"
     clip-path="url(#clipPath2)"
     id="line152"
     transform="matrix(1.3333,0,0,1.3333,-217.4367,-558.56042)" />
  <polygon
     style="font-weight:bold;font-family:sans-serif;fill:url(#linearGradient5);stroke:none;text-rendering:optimizeLegibility"
     points="199,502 204,495 199,488 195,495 "
     clip-path="url(#clipPath2)"
     id="polygon154"
     transform="matrix(1.3333,0,0,1.3333,-217.4367,-558.56042)" />
  <polygon
     style="font-weight:bold;font-family:sans-serif;fill:none;text-rendering:optimizeLegibility"
     points="199,502 204,495 199,488 195,495 "
     clip-path="url(#clipPath2)"
     id="polygon156"
     transform="matrix(1.3333,0,0,1.3333,-217.4367,-558.56042)" />
  <path
     d="M 4.2656,0 H 3.2344 v -5.9844 q 0,-0.5156 0,-0.8281 Q 3.25,-7.125 3.2812,-7.4688 3.0781,-7.2656 2.9219,-7.1406 2.7656,-7.0156 2.5312,-6.7969 L 1.625,-6.0625 1.0625,-6.7656 3.3906,-8.5625 h 0.875 z m 3.4578,-0.6406 q 0,-0.4532 0.2188,-0.625 0.2187,-0.1875 0.5156,-0.1875 0.3125,0 0.5312,0.1875 0.2344,0.1718 0.2344,0.625 0,0.4218 -0.2344,0.625 -0.2187,0.1875 -0.5312,0.1875 -0.2969,0 -0.5156,-0.1875 -0.2188,-0.2032 -0.2188,-0.625 z m 3.216,0 q 0,-0.4532 0.2188,-0.625 0.2187,-0.1875 0.5156,-0.1875 0.3125,0 0.5313,0.1875 0.2343,0.1718 0.2343,0.625 0,0.4218 -0.2343,0.625 -0.2188,0.1875 -0.5313,0.1875 -0.2969,0 -0.5156,-0.1875 -0.2188,-0.2032 -0.2188,-0.625 z m 6.2161,-8.4844 -0.2344,2.3125 2.2969,-0.6563 0.1718,1.1094 -2.2031,0.1719 1.4219,1.9063 -1.0313,0.5624 -1.0156,-2.0937 -0.9219,2.0937 -1.0781,-0.5624 1.4063,-1.9063 -2.1875,-0.1719 0.1718,-1.1094 2.2813,0.6563 -0.25,-2.3125 z"
     style="font-family:sans-serif;stroke:none;text-rendering:optimizeLegibility"
     clip-path="url(#clipPath6)"
     id="path160"
     transform="matrix(1.3333,0,0,1.3333,134.82303,53.102551)" />
  <rect
     x="298.01831"
     y="501.7641"
     width="72.2724"
     style="font-family:sans-serif;fill:url(#linearGradient593);stroke:none;stroke-width:2;shape-rendering:crispEdges;text-rendering:geometricPrecision"
     height="30"
     clip-path="url(#clipPath2)"
     id="rect164"
     transform="matrix(1.3333,0,0,1.3333,-217.4367,-558.56042)" />
  <rect
     x="298.01831"
     y="501.7641"
     width="72.2724"
     style="font-family:sans-serif;fill:none;stroke:#000000;stroke-width:2;shape-rendering:crispEdges;text-rendering:geometricPrecision"
     height="30"
     clip-path="url(#clipPath2)"
     id="rect166"
     transform="matrix(1.3333,0,0,1.3333,-217.4367,-558.56042)" />
  <path
     d="M 4.7031,0 2.6406,-6.7188 H 2.5938 Q 2.6094,-6.4844 2.625,-6 q 0.0312,0.4844 0.0469,1.0312 0.0312,0.5469 0.0312,0.9844 V 0 h -1.625 v -8.5625 h 2.4688 l 2.0312,6.5469 h 0.0313 l 2.1562,-6.5469 h 2.4688 V 0 H 8.5469 v -4.0625 q 0,-0.4063 0.0156,-0.9219 0.0156,-0.5312 0.0313,-1 0.0156,-0.4844 0.0312,-0.7187 H 8.5781 L 6.375,0 Z m 10.2536,-6.6719 q 1.3438,0 2.1406,0.7813 0.7969,0.7656 0.7969,2.1875 v 0.875 h -4.2187 q 0.0156,0.75 0.4375,1.1875 0.4375,0.4218 1.1875,0.4218 0.6406,0 1.1562,-0.125 0.5156,-0.125 1.0625,-0.3906 v 1.3906 Q 17.0348,-0.1094 16.5036,0 q -0.5313,0.125 -1.2813,0.125 -0.9843,0 -1.75,-0.3594 -0.75,-0.375 -1.1875,-1.1094 -0.4218,-0.75 -0.4218,-1.8906 0,-1.1406 0.375,-1.9062 0.3906,-0.7656 1.0937,-1.1406 0.7031,-0.3907 1.625,-0.3907 z m 0,1.2657 q -0.5156,0 -0.8594,0.3437 -0.3281,0.3281 -0.3906,1.0469 h 2.5 q 0,-0.6094 -0.3125,-1 -0.2969,-0.3906 -0.9375,-0.3906 z m 8.9671,3.4687 q 0,0.9844 -0.7032,1.5313 -0.7031,0.5312 -2.0937,0.5312 -0.6875,0 -1.1875,-0.0938 -0.4844,-0.0937 -0.9844,-0.2968 v -1.4688 q 0.5313,0.2344 1.1406,0.3906 0.6094,0.1563 1.0782,0.1563 0.5312,0 0.75,-0.1563 0.2343,-0.1562 0.2343,-0.4062 0,-0.1719 -0.0937,-0.2969 -0.0938,-0.1406 -0.3906,-0.2969 -0.2969,-0.1718 -0.9375,-0.4374 -0.6094,-0.2657 -1.0157,-0.5157 -0.3906,-0.2656 -0.5781,-0.625 -0.1875,-0.375 -0.1875,-0.9219 0,-0.9218 0.7031,-1.375 0.7032,-0.4531 1.875,-0.4531 0.625,0 1.1719,0.125 0.5469,0.1094 1.1406,0.3907 l -0.5468,1.2812 q -0.4688,-0.2031 -0.9063,-0.3438 -0.4375,-0.1406 -0.875,-0.1406 -0.7969,0 -0.7969,0.4375 0,0.1563 0.0938,0.2813 0.1094,0.125 0.4062,0.2812 0.2969,0.1406 0.875,0.375 0.5625,0.2344 0.9688,0.4844 0.4062,0.2344 0.625,0.6094 0.2344,0.3594 0.2344,0.9531 z m 5.964,0 q 0,0.9844 -0.7031,1.5313 -0.7031,0.5312 -2.0938,0.5312 -0.6875,0 -1.1875,-0.0938 -0.4843,-0.0937 -0.9843,-0.2968 v -1.4688 q 0.5312,0.2344 1.1406,0.3906 0.6094,0.1563 1.0781,0.1563 0.5313,0 0.75,-0.1563 0.2344,-0.1562 0.2344,-0.4062 0,-0.1719 -0.0938,-0.2969 -0.0937,-0.1406 -0.3906,-0.2969 -0.2969,-0.1718 -0.9375,-0.4374 -0.6094,-0.2657 -1.0156,-0.5157 -0.3906,-0.2656 -0.5781,-0.625 -0.1875,-0.375 -0.1875,-0.9219 0,-0.9218 0.7031,-1.375 0.7031,-0.4531 1.875,-0.4531 0.625,0 1.1719,0.125 0.5468,0.1094 1.1406,0.3907 l -0.5469,1.2812 q -0.4687,-0.2031 -0.9062,-0.3438 -0.4375,-0.1406 -0.875,-0.1406 -0.7969,0 -0.7969,0.4375 0,0.1563 0.0937,0.2813 0.1094,0.125 0.4063,0.2812 0.2969,0.1406 0.875,0.375 0.5625,0.2344 0.9687,0.4844 0.4063,0.2344 0.625,0.6094 0.2344,0.3594 0.2344,0.9531 z m 4.0734,-4.75 q 1.3125,0 2.0156,0.5781 0.7032,0.5625 0.7032,1.7344 V 0 h -1.25 l -0.3438,-0.8906 h -0.0469 q -0.4218,0.5312 -0.8906,0.7812 -0.4687,0.2344 -1.2812,0.2344 -0.875,0 -1.4532,-0.5156 -0.5781,-0.5156 -0.5781,-1.5625 0,-1.0469 0.7344,-1.5469 0.7344,-0.5 2.2031,-0.5469 l 1.1406,-0.0312 V -4.375 q 0,-0.5156 -0.2812,-0.75 -0.2656,-0.2344 -0.75,-0.2344 -0.4688,0 -0.9375,0.1406 -0.4531,0.125 -0.9063,0.3282 l -0.5937,-1.2032 q 0.5312,-0.2812 1.1719,-0.4374 0.6406,-0.1563 1.3437,-0.1563 z m 0.25,3.6719 q -0.8594,0.0312 -1.2031,0.3281 -0.3281,0.2813 -0.3281,0.75 0,0.4063 0.2343,0.5781 0.2344,0.1719 0.625,0.1719 0.5782,0 0.9688,-0.3437 0.4062,-0.3438 0.4062,-0.9688 v -0.5312 z m 6.4356,-3.6563 q 1.2031,0 1.8906,0.9531 h 0.0469 l 0.1406,-0.8281 h 1.5156 v 6.5625 q 0,1.4063 -0.8281,2.125 Q 42.5843,2.875 40.9749,2.875 40.2718,2.875 39.678,2.7969 39.0843,2.7188 38.5218,2.5 V 1.0625 q 1.2031,0.5156 2.5468,0.5156 1.3907,0 1.3907,-1.5 v -0.125 q 0,-0.2031 0.0156,-0.4219 0.0156,-0.2187 0.0312,-0.3906 h -0.0468 q -0.3438,0.5156 -0.8125,0.75 -0.4688,0.2344 -1.0469,0.2344 -1.1719,0 -1.8281,-0.8906 -0.6407,-0.9063 -0.6407,-2.5 0,-1.6094 0.6719,-2.5 0.6719,-0.9063 1.8438,-0.9063 z m 0.5625,1.4531 q -1.2657,0 -1.2657,1.9844 0,1.9532 1.2813,1.9532 0.6875,0 1.0156,-0.3907 0.3281,-0.3906 0.3281,-1.3593 V -3.25 q 0,-1.0625 -0.3281,-1.5156 -0.3125,-0.4532 -1.0312,-0.4532 z m 7.6116,-1.4531 q 1.3438,0 2.1407,0.7813 0.7968,0.7656 0.7968,2.1875 v 0.875 h -4.2187 q 0.0156,0.75 0.4375,1.1875 0.4375,0.4218 1.1875,0.4218 0.6406,0 1.1562,-0.125 0.5157,-0.125 1.0625,-0.3906 v 1.3906 Q 50.8991,-0.1094 50.3678,0 q -0.5312,0.125 -1.2812,0.125 -0.9844,0 -1.75,-0.3594 -0.75,-0.375 -1.1875,-1.1094 -0.4219,-0.75 -0.4219,-1.8906 0,-1.1406 0.375,-1.9062 0.3906,-0.7656 1.0937,-1.1406 0.7032,-0.3907 1.625,-0.3907 z m 0,1.2657 q -0.5156,0 -0.8593,0.3437 -0.3282,0.3281 -0.3907,1.0469 h 2.5 q 0,-0.6094 -0.3125,-1 -0.2968,-0.3906 -0.9375,-0.3906 z"
     style="font-weight:bold;font-family:sans-serif;stroke:none;stroke-width:2;text-rendering:optimizeLegibility"
     clip-path="url(#clipPath7)"
     id="path170"
     transform="matrix(1.3333,0,0,1.3333,193.2441,134.44105)" />
  <line
     x1="234.386"
     x2="298.01831"
     y1="516.7641"
     style="font-weight:bold;font-family:sans-serif;fill:none;text-rendering:optimizeLegibility"
     y2="516.7641"
     clip-path="url(#clipPath2)"
     id="line174"
     transform="matrix(1.3333,0,0,1.3333,-217.4367,-558.56042)" />
  <line
     x1="298.01831"
     x2="287.62601"
     y1="516.7641"
     style="font-weight:bold;font-family:sans-serif;fill:none;text-rendering:optimizeLegibility"
     y2="522.7641"
     clip-path="url(#clipPath2)"
     id="line176"
     transform="matrix(1.3333,0,0,1.3333,-217.4367,-558.56042)" />
  <line
     x1="298.01831"
     x2="287.62601"
     y1="516.7641"
     style="font-weight:bold;font-family:sans-serif;fill:none;text-rendering:optimizeLegibility"
     y2="510.7641"
     clip-path="url(#clipPath2)"
     id="line178"
     transform="matrix(1.3333,0,0,1.3333,-217.4367,-558.56042)" />
  <polygon
     style="font-weight:bold;font-family:sans-serif;fill:url(#linearGradient7);stroke:none;text-rendering:optimizeLegibility"
     points="234,517 241,521 249,517 241,512 "
     clip-path="url(#clipPath2)"
     id="polygon180"
     transform="matrix(1.3333,0,0,1.3333,-217.4367,-558.56042)" />
  <polygon
     style="font-weight:bold;font-family:sans-serif;fill:none;text-rendering:optimizeLegibility"
     points="234,517 241,521 249,517 241,512 "
     clip-path="url(#clipPath2)"
     id="polygon182"
     transform="matrix(1.3333,0,0,1.3333,-217.4367,-558.56042)" />
  <line
     x1="370.29059"
     x2="408.36981"
     y1="516.7641"
     style="font-weight:bold;font-family:sans-serif;fill:none;text-rendering:optimizeLegibility"
     y2="516.7641"
     clip-path="url(#clipPath2)"
     id="line184"
     transform="matrix(1.3333,0,0,1.3333,-217.4367,-558.56042)" />
  <line
     x1="408.36981"
     x2="408.36981"
     y1="516.7641"
     style="font-weight:bold;font-family:sans-serif;fill:none;text-rendering:optimizeLegibility"
     y2="434.93079"
     clip-path="url(#clipPath2)"
     id="line186"
     transform="matrix(1.3333,0,0,1.3333,-217.4367,-558.56042)" />
  <line
     x1="408.36981"
     x2="376.30591"
     y1="434.93079"
     style="font-weight:bold;font-family:sans-serif;fill:none;text-rendering:optimizeLegibility"
     y2="434.93079"
     clip-path="url(#clipPath2)"
     id="line188"
     transform="matrix(1.3333,0,0,1.3333,-217.4367,-558.56042)" />
  <line
     x1="376.30591"
     x2="386.69821"
     y1="434.93079"
     style="font-weight:bold;font-family:sans-serif;fill:none;text-rendering:optimizeLegibility"
     y2="428.93079"
     clip-path="url(#clipPath2)"
     id="line190"
     transform="matrix(1.3333,0,0,1.3333,-217.4367,-558.56042)" />
  <line
     x1="376.30591"
     x2="386.69821"
     y1="434.93079"
     style="font-weight:bold;font-family:sans-serif;fill:none;text-rendering:optimizeLegibility"
     y2="440.93079"
     clip-path="url(#clipPath2)"
     id="line192"
     transform="matrix(1.3333,0,0,1.3333,-217.4367,-558.56042)" />
  <polygon
     style="font-weight:bold;font-family:sans-serif;fill:url(#linearGradient8);stroke:none;text-rendering:optimizeLegibility"
     points="370,517 377,521 384,517 377,512 "
     clip-path="url(#clipPath2)"
     id="polygon194"
     transform="matrix(1.3333,0,0,1.3333,-217.4367,-558.56042)" />
  <polygon
     style="font-weight:bold;font-family:sans-serif;fill:none;text-rendering:optimizeLegibility"
     points="370,517 377,521 384,517 377,512 "
     clip-path="url(#clipPath2)"
     id="polygon196"
     transform="matrix(1.3333,0,0,1.3333,-217.4367,-558.56042)" />
  <polygon
     style="font-weight:bold;font-family:sans-serif;fill:url(#linearGradient9);stroke:none;stroke-width:2;text-rendering:optimizeLegibility"
     points="434,468 439,478 429,478 "
     clip-path="url(#clipPath2)"
     id="polygon198"
     transform="matrix(1.3333,0,0,1.3333,-217.4367,-558.56042)" />
  <polygon
     style="font-weight:bold;font-family:sans-serif;fill:none;stroke-width:2;text-rendering:optimizeLegibility"
     points="434,468 439,478 429,478 "
     clip-path="url(#clipPath2)"
     id="polygon200"
     transform="matrix(1.3333,0,0,1.3333,-217.4367,-558.56042)" />
  <path
     d="m 6.6094,-3.2344 q 0,1.6094 -0.8125,2.4844 -0.8125,0.875 -2.1875,0.875 -0.8438,0 -1.5156,-0.3906 -0.6719,-0.3906 -1.0626,-1.1406 -0.375,-0.75 -0.375,-1.8282 0,-1.5937 0.7969,-2.4531 0.8125,-0.8594 2.1875,-0.8594 0.8906,0 1.5469,0.3907 0.6719,0.3906 1.0469,1.125 0.375,0.7343 0.375,1.7968 z m -4.8594,0 q 0,1.1406 0.4531,1.8125 0.4531,0.6719 1.4375,0.6719 0.9688,0 1.4219,-0.6719 0.4531,-0.6719 0.4531,-1.8125 0,-1.1406 -0.4531,-1.7812 -0.4531,-0.6406 -1.4375,-0.6406 -0.9844,0 -1.4375,0.6406 Q 1.75,-4.375 1.75,-3.2344 Z M 13.6507,-6.4375 V 0 h -0.8594 l -0.1562,-0.8594 h -0.0469 q -0.3125,0.5156 -0.875,0.75 -0.5469,0.2344 -1.1719,0.2344 -1.1562,0 -1.75,-0.5625 Q 8.2132,-1 8.2132,-2.2188 v -4.2187 h 1.0625 v 4.1406 q 0,1.5469 1.4219,1.5469 1.0781,0 1.4843,-0.5938 0.4219,-0.6093 0.4219,-1.7343 V -6.4375 Z M 17.848,-0.75 q 0.2344,0 0.4844,-0.0312 0.25,-0.0469 0.4062,-0.0938 v 0.7969 q -0.1562,0.0937 -0.4687,0.1406 -0.3125,0.0625 -0.6094,0.0625 -0.5,0 -0.9375,-0.1719 -0.4219,-0.1875 -0.6875,-0.6093 -0.25,-0.4376 -0.25,-1.2188 V -5.6094 H 14.8636 V -6.125 l 0.9219,-0.4219 0.4219,-1.3593 h 0.625 v 1.4687 h 1.8593 v 0.8281 h -1.8593 v 3.7188 q 0,0.5781 0.2812,0.8594 0.2813,0.2812 0.7344,0.2812 z"
     style="font-family:sans-serif;stroke:none;stroke-width:2;text-rendering:optimizeLegibility"
     clip-path="url(#clipPath8)"
     id="path204"
     transform="matrix(1.3333,0,0,1.3333,348.77488,102.19093)" />
  <line
     x1="333.81619"
     x2="333.81619"
     y1="501.7641"
     style="font-family:sans-serif;fill:none;text-rendering:optimizeLegibility"
     y2="449.93079"
     clip-path="url(#clipPath2)"
     id="line208"
     transform="matrix(1.3333,0,0,1.3333,-217.4367,-558.56042)" />
  <line
     x1="333.81619"
     x2="339.81619"
     y1="449.93079"
     style="font-family:sans-serif;fill:none;text-rendering:optimizeLegibility"
     y2="460.32309"
     clip-path="url(#clipPath2)"
     id="line210"
     transform="matrix(1.3333,0,0,1.3333,-217.4367,-558.56042)" />
  <line
     x1="333.81619"
     x2="327.81619"
     y1="449.93079"
     style="font-family:sans-serif;fill:none;text-rendering:optimizeLegibility"
     y2="460.32309"
     clip-path="url(#clipPath2)"
     id="line212"
     transform="matrix(1.3333,0,0,1.3333,-217.4367,-558.56042)" />
  <polygon
     style="font-family:sans-serif;fill:url(#linearGradient10);stroke:none;text-rendering:optimizeLegibility"
     points="334,502 339,495 334,488 329,495 "
     clip-path="url(#clipPath2)"
     id="polygon214"
     transform="matrix(1.3333,0,0,1.3333,-217.4367,-558.56042)" />
  <polygon
     style="font-family:sans-serif;fill:none;text-rendering:optimizeLegibility"
     points="334,502 339,495 334,488 329,495 "
     clip-path="url(#clipPath2)"
     id="polygon216"
     transform="matrix(1.3333,0,0,1.3333,-217.4367,-558.56042)" />
  <polygon
     style="font-family:sans-serif;fill:url(#linearGradient11);stroke:none;stroke-width:2;text-rendering:optimizeLegibility"
     points="354,456 359,466 349,466 "
     clip-path="url(#clipPath2)"
     id="polygon218"
     transform="matrix(1.3333,0,0,1.3333,-217.4367,-558.56042)" />
  <polygon
     style="font-family:sans-serif;fill:none;stroke-width:2;text-rendering:optimizeLegibility"
     points="354,456 359,466 349,466 "
     clip-path="url(#clipPath2)"
     id="polygon220"
     transform="matrix(1.3333,0,0,1.3333,-217.4367,-558.56042)" />
  <path
     d="m 1.5625,-8.8438 q 0.2344,0 0.4219,0.1719 0.1875,0.1563 0.1875,0.5 0,0.3281 -0.1875,0.5 Q 1.7969,-7.5 1.5625,-7.5 q -0.2656,0 -0.4531,-0.1719 -0.1719,-0.1719 -0.1719,-0.5 0,-0.3437 0.1719,-0.5 0.1875,-0.1719 0.4531,-0.1719 z m 0.5156,2.4063 V 0 H 1.0156 v -6.4375 z m 5.1273,-0.1094 q 1.1562,0 1.7344,0.5625 0.5937,0.5469 0.5937,1.7969 V 0 H 8.5023 v -4.1094 q 0,-1.5468 -1.4532,-1.5468 -1.0625,0 -1.4687,0.5937 -0.4063,0.5937 -0.4063,1.7187 V 0 H 4.1116 V -6.4375 H 4.971 l 0.1563,0.875 h 0.0625 q 0.3125,-0.5 0.8593,-0.7344 0.5469,-0.25 1.1563,-0.25 z"
     style="font-family:sans-serif;stroke:none;stroke-width:2;text-rendering:optimizeLegibility"
     clip-path="url(#clipPath9)"
     id="path224"
     transform="matrix(1.3333,0,0,1.3333,247.59487,86.157333)" />
  <rect
     x="311.1044"
     y="593.034"
     width="46.100201"
     style="font-family:sans-serif;fill:url(#linearGradient599);stroke:none;stroke-width:2;shape-rendering:crispEdges;text-rendering:geometricPrecision"
     height="30"
     clip-path="url(#clipPath2)"
     id="rect228"
     transform="matrix(1.3333,0,0,1.3333,-217.4367,-558.56042)" />
  <rect
     x="311.1044"
     y="593.034"
     width="46.100201"
     style="font-family:sans-serif;fill:none;stroke:#000000;stroke-width:2;shape-rendering:crispEdges;text-rendering:geometricPrecision"
     height="30"
     clip-path="url(#clipPath2)"
     id="rect230"
     transform="matrix(1.3333,0,0,1.3333,-217.4367,-558.56042)" />
  <path
     d="m 3.5781,-8.5625 q 1.75,0 2.5781,0.6406 Q 7,-7.2969 7,-6 q 0,0.5938 -0.2344,1.0312 -0.2187,0.4376 -0.5937,0.75 -0.3594,0.2969 -0.7657,0.4844 L 7.9219,0 H 5.9062 L 3.8594,-3.2812 H 2.8906 V 0 H 1.0781 V -8.5625 Z M 3.4375,-7.0781 H 2.8906 v 2.3125 h 0.5938 q 0.8906,0 1.2812,-0.2969 0.3906,-0.2969 0.3906,-0.8906 0,-0.6094 -0.4218,-0.8594 -0.4063,-0.2656 -1.2969,-0.2656 z m 11.3732,3.7969 q 0,1.625 -0.8594,2.5156 -0.8594,0.8906 -2.3281,0.8906 -0.9219,0 -1.6406,-0.3906 -0.7032,-0.4063 -1.1094,-1.1719 -0.4063,-0.7656 -0.4063,-1.8437 0,-1.6407 0.8438,-2.5157 0.8594,-0.875 2.3437,-0.875 0.9219,0 1.625,0.4063 0.7188,0.3906 1.125,1.1406 0.4063,0.75 0.4063,1.8438 z m -4.5313,0 q 0,0.9687 0.3125,1.4687 0.3282,0.5 1.0469,0.5 0.7031,0 1.0156,-0.5 0.3282,-0.5 0.3282,-1.4687 0,-0.9844 -0.3282,-1.4688 -0.3125,-0.4844 -1.0312,-0.4844 -0.7031,0 -1.0313,0.4844 -0.3125,0.4844 -0.3125,1.4688 z M 18.0669,0 h -1.7813 v -9.125 h 1.7813 z m 4.5819,-6.6719 q 1.3437,0 2.1406,0.7813 0.7969,0.7656 0.7969,2.1875 v 0.875 h -4.2188 q 0.0156,0.75 0.4375,1.1875 0.4375,0.4218 1.1875,0.4218 0.6406,0 1.1563,-0.125 0.5156,-0.125 1.0625,-0.3906 v 1.3906 Q 24.7269,-0.1094 24.1956,0 q -0.5312,0.125 -1.2812,0.125 -0.9844,0 -1.75,-0.3594 -0.75,-0.375 -1.1875,-1.1094 -0.4219,-0.75 -0.4219,-1.8906 0,-1.1406 0.375,-1.9062 0.3906,-0.7656 1.0938,-1.1406 0.7031,-0.3907 1.625,-0.3907 z m 0,1.2657 q -0.5157,0 -0.8594,0.3437 -0.3281,0.3281 -0.3906,1.0469 h 2.5 q 0,-0.6094 -0.3125,-1 -0.2969,-0.3906 -0.9375,-0.3906 z"
     style="font-weight:bold;font-family:sans-serif;stroke:none;stroke-width:2;text-rendering:optimizeLegibility"
     clip-path="url(#clipPath10)"
     id="path234"
     transform="matrix(1.3333,0,0,1.3333,210.6918,256.13121)" />
  <line
     x1="199.2338"
     x2="199.2338"
     y1="531.7641"
     style="font-weight:bold;font-family:sans-serif;fill:none;text-rendering:optimizeLegibility"
     y2="608.034"
     clip-path="url(#clipPath2)"
     id="line238"
     transform="matrix(1.3333,0,0,1.3333,-217.4367,-558.56042)" />
  <line
     x1="199.2338"
     x2="311.1044"
     y1="608.034"
     style="font-weight:bold;font-family:sans-serif;fill:none;text-rendering:optimizeLegibility"
     y2="608.034"
     clip-path="url(#clipPath2)"
     id="line240"
     transform="matrix(1.3333,0,0,1.3333,-217.4367,-558.56042)" />
  <line
     x1="311.1044"
     x2="300.7121"
     y1="608.034"
     style="font-weight:bold;font-family:sans-serif;fill:none;text-rendering:optimizeLegibility"
     y2="614.034"
     clip-path="url(#clipPath2)"
     id="line242"
     transform="matrix(1.3333,0,0,1.3333,-217.4367,-558.56042)" />
  <line
     x1="311.1044"
     x2="300.7121"
     y1="608.034"
     style="font-weight:bold;font-family:sans-serif;fill:none;text-rendering:optimizeLegibility"
     y2="602.034"
     clip-path="url(#clipPath2)"
     id="line244"
     transform="matrix(1.3333,0,0,1.3333,-217.4367,-558.56042)" />
  <polygon
     style="font-weight:bold;font-family:sans-serif;fill:url(#linearGradient13);stroke:none;text-rendering:optimizeLegibility"
     points="199,532 195,539 199,546 204,539 "
     clip-path="url(#clipPath2)"
     id="polygon246"
     transform="matrix(1.3333,0,0,1.3333,-217.4367,-558.56042)" />
  <polygon
     style="font-weight:bold;font-family:sans-serif;fill:none;text-rendering:optimizeLegibility"
     points="199,532 195,539 199,546 204,539 "
     clip-path="url(#clipPath2)"
     id="polygon248"
     transform="matrix(1.3333,0,0,1.3333,-217.4367,-558.56042)" />
  <path
     d="M 4.2656,0 H 3.2344 v -5.9844 q 0,-0.5156 0,-0.8281 Q 3.25,-7.125 3.2812,-7.4688 3.0781,-7.2656 2.9219,-7.1406 2.7656,-7.0156 2.5312,-6.7969 L 1.625,-6.0625 1.0625,-6.7656 3.3906,-8.5625 h 0.875 z m 3.4578,-0.6406 q 0,-0.4532 0.2188,-0.625 0.2187,-0.1875 0.5156,-0.1875 0.3125,0 0.5312,0.1875 0.2344,0.1718 0.2344,0.625 0,0.4218 -0.2344,0.625 -0.2187,0.1875 -0.5312,0.1875 -0.2969,0 -0.5156,-0.1875 -0.2188,-0.2032 -0.2188,-0.625 z m 3.216,0 q 0,-0.4532 0.2188,-0.625 0.2187,-0.1875 0.5156,-0.1875 0.3125,0 0.5313,0.1875 0.2343,0.1718 0.2343,0.625 0,0.4218 -0.2343,0.625 -0.2188,0.1875 -0.5313,0.1875 -0.2969,0 -0.5156,-0.1875 -0.2188,-0.2032 -0.2188,-0.625 z m 6.2161,-8.4844 -0.2344,2.3125 2.2969,-0.6563 0.1718,1.1094 -2.2031,0.1719 1.4219,1.9063 -1.0313,0.5624 -1.0156,-2.0937 -0.9219,2.0937 -1.0781,-0.5624 1.4063,-1.9063 -2.1875,-0.1719 0.1718,-1.1094 2.2813,0.6563 -0.25,-2.3125 z"
     style="font-family:sans-serif;stroke:none;text-rendering:optimizeLegibility"
     clip-path="url(#clipPath11)"
     id="path252"
     transform="matrix(1.3333,0,0,1.3333,160.0264,283.90105)" />
  <line
     x1="361.48859"
     x2="361.48859"
     y1="531.7641"
     style="font-family:sans-serif;fill:none;text-rendering:optimizeLegibility"
     y2="562.39911"
     clip-path="url(#clipPath2)"
     id="line256"
     transform="matrix(1.3333,0,0,1.3333,-217.4367,-558.56042)" />
  <line
     x1="361.48859"
     x2="351.59"
     y1="562.39911"
     style="font-family:sans-serif;fill:none;text-rendering:optimizeLegibility"
     y2="562.39911"
     clip-path="url(#clipPath2)"
     id="line258"
     transform="matrix(1.3333,0,0,1.3333,-217.4367,-558.56042)" />
  <line
     x1="351.59"
     x2="351.59"
     y1="562.39911"
     style="font-family:sans-serif;fill:none;text-rendering:optimizeLegibility"
     y2="593.034"
     clip-path="url(#clipPath2)"
     id="line260"
     transform="matrix(1.3333,0,0,1.3333,-217.4367,-558.56042)" />
  <line
     x1="351.59"
     x2="345.59"
     y1="593.034"
     style="font-family:sans-serif;fill:none;text-rendering:optimizeLegibility"
     y2="582.64172"
     clip-path="url(#clipPath2)"
     id="line262"
     transform="matrix(1.3333,0,0,1.3333,-217.4367,-558.56042)" />
  <line
     x1="351.59"
     x2="357.59"
     y1="593.034"
     style="font-family:sans-serif;fill:none;text-rendering:optimizeLegibility"
     y2="582.64172"
     clip-path="url(#clipPath2)"
     id="line264"
     transform="matrix(1.3333,0,0,1.3333,-217.4367,-558.56042)" />
  <path
     d="M 0.4844,-2.75 V -3.6875 H 3.3906 V -2.75 Z m 10.5153,-3.7969 q 0.1875,0 0.3906,0.0157 0.2188,0.0156 0.375,0.0468 l -0.1406,0.9688 q -0.1563,-0.0313 -0.3438,-0.0469 -0.1875,-0.0313 -0.3437,-0.0313 -0.5,0 -0.9375,0.2813 -0.4219,0.2656 -0.6875,0.75 -0.25,0.4844 -0.25,1.125 V 0 H 7.9997 v -6.4375 h 0.875 L 8.9841,-5.25 h 0.0468 q 0.3125,-0.5312 0.7969,-0.9062 0.5,-0.3907 1.1719,-0.3907 z m 4.4404,0 q 0.8281,0 1.4219,0.3594 0.5937,0.3594 0.9062,1.0156 0.3281,0.6407 0.3281,1.5313 v 0.625 h -4.4062 q 0.0312,1.0937 0.5625,1.6718 0.5312,0.5626 1.4844,0.5626 0.625,0 1.0937,-0.1094 0.4688,-0.125 0.9844,-0.3282 v 0.9219 q -0.5,0.2188 -0.9844,0.3125 -0.4687,0.1094 -1.1406,0.1094 -0.9063,0 -1.6094,-0.375 -0.7031,-0.375 -1.0937,-1.1094 -0.3907,-0.7344 -0.3907,-1.8125 0,-1.0469 0.3594,-1.7969 0.3594,-0.7656 1,-1.1718 0.6406,-0.4063 1.4844,-0.4063 z m -0.0156,0.8594 q -0.75,0 -1.1875,0.4844 -0.4375,0.4843 -0.5157,1.3437 h 3.2657 q 0,-0.8125 -0.375,-1.3125 -0.375,-0.5156 -1.1875,-0.5156 z m 6.8774,5.8125 q -0.8438,0 -1.5156,-0.3438 -0.6563,-0.3593 -1.0469,-1.0937 -0.375,-0.7344 -0.375,-1.875 0,-1.1875 0.3906,-1.9219 0.4063,-0.75 1.0781,-1.0937 0.6875,-0.3438 1.5469,-0.3438 0.4844,0 0.9375,0.1094 0.4688,0.0937 0.75,0.2344 l -0.3125,0.875 q -0.2969,-0.1094 -0.6875,-0.2031 -0.375,-0.0938 -0.7187,-0.0938 -1.8907,0 -1.8907,2.4375 0,1.1563 0.4532,1.7813 0.4687,0.6093 1.3906,0.6093 0.5156,0 0.9219,-0.1093 0.4062,-0.1094 0.7343,-0.25 v 0.9218 Q 23.6456,-0.0625 23.255,0.0312 22.8644,0.125 22.3019,0.125 Z m 5.6663,-6.6719 q 0.8281,0 1.4219,0.3594 0.5937,0.3594 0.9062,1.0156 0.3281,0.6407 0.3281,1.5313 v 0.625 h -4.4062 q 0.0312,1.0937 0.5625,1.6718 0.5312,0.5626 1.4844,0.5626 0.625,0 1.0937,-0.1094 0.4688,-0.125 0.9844,-0.3282 v 0.9219 q -0.5,0.2188 -0.9844,0.3125 -0.4687,0.1094 -1.1406,0.1094 -0.9063,0 -1.6094,-0.375 -0.7031,-0.375 -1.0937,-1.1094 -0.3907,-0.7344 -0.3907,-1.8125 0,-1.0469 0.3594,-1.7969 0.3594,-0.7656 1,-1.1718 0.6406,-0.4063 1.4844,-0.4063 z m -0.0156,0.8594 q -0.75,0 -1.1875,0.4844 -0.4375,0.4843 -0.5157,1.3437 h 3.2657 q 0,-0.8125 -0.375,-1.3125 -0.375,-0.5156 -1.1875,-0.5156 z m 4.8461,-3.1563 q 0.2344,0 0.4219,0.1719 0.1875,0.1563 0.1875,0.5 0,0.3281 -0.1875,0.5 -0.1875,0.1719 -0.4219,0.1719 -0.2656,0 -0.4531,-0.1719 -0.1719,-0.1719 -0.1719,-0.5 0,-0.3437 0.1719,-0.5 0.1875,-0.1719 0.4531,-0.1719 z m 0.5157,2.4063 V 0 H 32.2519 V -6.4375 Z M 36.7698,0 34.3323,-6.4375 h 1.125 l 1.375,3.7969 q 0.0937,0.2656 0.2031,0.5937 0.1094,0.3125 0.1875,0.6094 0.0781,0.2969 0.125,0.5 h 0.0469 q 0.0468,-0.2031 0.125,-0.5 0.0937,-0.2969 0.2031,-0.625 0.125,-0.3281 0.2031,-0.5781 l 1.375,-3.7969 h 1.125 L 37.9729,0 Z m 7.1585,-6.5469 q 0.8281,0 1.4219,0.3594 0.5937,0.3594 0.9062,1.0156 0.3281,0.6407 0.3281,1.5313 v 0.625 h -4.4062 q 0.0312,1.0937 0.5625,1.6718 0.5312,0.5626 1.4844,0.5626 0.625,0 1.0937,-0.1094 0.4688,-0.125 0.9844,-0.3282 v 0.9219 q -0.5,0.2188 -0.9844,0.3125 -0.4687,0.1094 -1.1406,0.1094 -0.9063,0 -1.6094,-0.375 -0.7031,-0.375 -1.0937,-1.1094 -0.3907,-0.7344 -0.3907,-1.8125 0,-1.0469 0.3594,-1.7969 0.3594,-0.7656 1,-1.1718 0.6406,-0.4063 1.4844,-0.4063 z m -0.0156,0.8594 q -0.75,0 -1.1875,0.4844 -0.4375,0.4843 -0.5157,1.3437 h 3.2657 q 0,-0.8125 -0.375,-1.3125 -0.375,-0.5156 -1.1875,-0.5156 z m 7.2993,-0.8594 q 0.1875,0 0.3906,0.0157 0.2188,0.0156 0.375,0.0468 l -0.1406,0.9688 q -0.1563,-0.0313 -0.3438,-0.0469 -0.1875,-0.0313 -0.3437,-0.0313 -0.5,0 -0.9375,0.2813 -0.4219,0.2656 -0.6875,0.75 -0.25,0.4844 -0.25,1.125 V 0 H 48.212 v -6.4375 h 0.875 l 0.1094,1.1875 h 0.0468 q 0.3125,-0.5312 0.7969,-0.9062 0.5,-0.3907 1.1719,-0.3907 z"
     style="font-family:sans-serif;stroke:none;text-rendering:optimizeLegibility"
     clip-path="url(#clipPath12)"
     id="path268"
     transform="matrix(1.3333,0,0,1.3333,265.99668,217.32872)" />
  <line
     x1="310.90839"
     x2="310.90839"
     y1="531.7641"
     style="font-family:sans-serif;fill:none;text-rendering:optimizeLegibility"
     y2="562.39911"
     clip-path="url(#clipPath2)"
     id="line272"
     transform="matrix(1.3333,0,0,1.3333,-217.4367,-558.56042)" />
  <line
     x1="310.90839"
     x2="319.3266"
     y1="562.39911"
     style="font-family:sans-serif;fill:none;text-rendering:optimizeLegibility"
     y2="562.39911"
     clip-path="url(#clipPath2)"
     id="line274"
     transform="matrix(1.3333,0,0,1.3333,-217.4367,-558.56042)" />
  <line
     x1="319.3266"
     x2="319.3266"
     y1="562.39911"
     style="font-family:sans-serif;fill:none;text-rendering:optimizeLegibility"
     y2="593.034"
     clip-path="url(#clipPath2)"
     id="line276"
     transform="matrix(1.3333,0,0,1.3333,-217.4367,-558.56042)" />
  <line
     x1="319.3266"
     x2="313.3266"
     y1="593.034"
     style="font-family:sans-serif;fill:none;text-rendering:optimizeLegibility"
     y2="582.64172"
     clip-path="url(#clipPath2)"
     id="line278"
     transform="matrix(1.3333,0,0,1.3333,-217.4367,-558.56042)" />
  <line
     x1="319.3266"
     x2="325.3266"
     y1="593.034"
     style="font-family:sans-serif;fill:none;text-rendering:optimizeLegibility"
     y2="582.64172"
     clip-path="url(#clipPath2)"
     id="line280"
     transform="matrix(1.3333,0,0,1.3333,-217.4367,-558.56042)" />
  <path
     d="M 0.4844,-2.75 V -3.6875 H 3.3906 V -2.75 Z m 11.7028,0.9688 q 0,0.9374 -0.7031,1.4218 Q 10.7966,0.125 9.6247,0.125 8.9528,0.125 8.4684,0.0156 7.9841,-0.0938 7.6091,-0.2812 V -1.25 q 0.3906,0.1875 0.9218,0.3594 0.5469,0.1562 1.1094,0.1562 0.8125,0 1.1719,-0.25 0.3594,-0.2656 0.3594,-0.7031 0,-0.2344 -0.1407,-0.4219 -0.125,-0.1875 -0.4687,-0.375 -0.3438,-0.2031 -0.9688,-0.4375 -0.625,-0.25 -1.0781,-0.4843 -0.4375,-0.2344 -0.6875,-0.5626 -0.2344,-0.3437 -0.2344,-0.875 0,-0.8124 0.6563,-1.25 0.6719,-0.4531 1.7656,-0.4531 0.5781,0 1.0781,0.1094 0.5157,0.1094 0.9688,0.3125 l -0.3594,0.8438 q -0.4062,-0.1719 -0.8594,-0.2813 -0.4375,-0.125 -0.9062,-0.125 -0.6563,0 -1,0.2187 -0.3281,0.2032 -0.3281,0.5626 0,0.2656 0.1562,0.4531 0.1563,0.1875 0.5156,0.3593 0.3594,0.1719 0.9844,0.4063 0.6094,0.2344 1.0313,0.4844 0.4375,0.2343 0.6562,0.5781 0.2344,0.3281 0.2344,0.8438 z m 4.0449,-4.7657 q 0.8281,0 1.4219,0.3594 0.5937,0.3594 0.9062,1.0156 0.3282,0.6407 0.3282,1.5313 v 0.625 h -4.4063 q 0.0313,1.0937 0.5625,1.6718 0.5313,0.5626 1.4844,0.5626 0.625,0 1.0937,-0.1094 0.4688,-0.125 0.9844,-0.3282 v 0.9219 q -0.5,0.2188 -0.9844,0.3125 -0.4687,0.1094 -1.1406,0.1094 -0.9062,0 -1.6094,-0.375 -0.7031,-0.375 -1.0937,-1.1094 -0.3906,-0.7344 -0.3906,-1.8125 0,-1.0469 0.3593,-1.7969 0.3594,-0.7656 1,-1.1718 0.6407,-0.4063 1.4844,-0.4063 z m -0.0156,0.8594 q -0.75,0 -1.1875,0.4844 -0.4375,0.4843 -0.5156,1.3437 h 3.2656 q 0,-0.8125 -0.375,-1.3125 -0.375,-0.5156 -1.1875,-0.5156 z m 7.393,-0.8594 q 1.1563,0 1.7344,0.5625 0.5938,0.5469 0.5938,1.7969 V 0 h -1.0313 v -4.1094 q 0,-1.5468 -1.4531,-1.5468 -1.0625,0 -1.4688,0.5937 -0.4062,0.5937 -0.4062,1.7187 V 0 h -1.0625 v -6.4375 h 0.8594 l 0.1562,0.875 h 0.0625 q 0.3125,-0.5 0.8594,-0.7344 0.5469,-0.25 1.1562,-0.25 z m 6.6036,6.6719 q -1.2032,0 -1.9219,-0.8281 -0.7188,-0.8438 -0.7188,-2.5 0,-1.6563 0.7188,-2.5 0.7344,-0.8438 1.9375,-0.8438 0.75,0 1.2187,0.2813 0.4688,0.2656 0.7657,0.6562 h 0.0781 Q 32.2756,-5.7656 32.2443,-6.0625 32.2131,-6.375 32.2131,-6.5469 V -9.125 h 1.0625 V 0 h -0.8438 l -0.1562,-0.8594 h -0.0625 q -0.2813,0.4063 -0.7657,0.7032 -0.4687,0.2812 -1.2343,0.2812 z m 0.1718,-0.875 q 1.0157,0 1.4219,-0.5625 Q 32.2287,-1.875 32.2287,-3 v -0.1875 q 0,-1.2031 -0.3906,-1.8437 -0.3907,-0.6407 -1.4688,-0.6407 -0.8437,0 -1.2812,0.6875 -0.4219,0.6719 -0.4219,1.7969 0,1.1563 0.4219,1.7969 0.4375,0.6406 1.2968,0.6406 z m 7.4113,-5.7969 q 0.8282,0 1.4219,0.3594 0.5938,0.3594 0.9063,1.0156 0.3281,0.6407 0.3281,1.5313 v 0.625 h -4.4063 q 0.0313,1.0937 0.5625,1.6718 0.5313,0.5626 1.4844,0.5626 0.625,0 1.0938,-0.1094 0.4687,-0.125 0.9843,-0.3282 v 0.9219 q -0.5,0.2188 -0.9843,0.3125 -0.4688,0.1094 -1.1407,0.1094 -0.9062,0 -1.6093,-0.375 -0.7032,-0.375 -1.0938,-1.1094 -0.3906,-0.7344 -0.3906,-1.8125 0,-1.0469 0.3594,-1.7969 0.3593,-0.7656 1,-1.1718 0.6406,-0.4063 1.4843,-0.4063 z m -0.0156,0.8594 q -0.75,0 -1.1875,0.4844 -0.4375,0.4843 -0.5156,1.3437 h 3.2656 q 0,-0.8125 -0.375,-1.3125 -0.375,-0.5156 -1.1875,-0.5156 z m 7.2993,-0.8594 q 0.1875,0 0.3907,0.0157 0.2187,0.0156 0.375,0.0468 l -0.1407,0.9688 q -0.1562,-0.0313 -0.3437,-0.0469 -0.1875,-0.0313 -0.3438,-0.0313 -0.5,0 -0.9375,0.2813 -0.4218,0.2656 -0.6875,0.75 -0.25,0.4844 -0.25,1.125 V 0 h -1.0625 v -6.4375 h 0.875 l 0.1094,1.1875 h 0.0469 q 0.3125,-0.5312 0.7969,-0.9062 0.5,-0.3907 1.1718,-0.3907 z"
     style="font-family:sans-serif;stroke:none;text-rendering:optimizeLegibility"
     clip-path="url(#clipPath13)"
     id="path284"
     transform="matrix(1.3333,0,0,1.3333,107.66224,217.19645)" />
</svg>
